<svg xmlns="http://www.w3.org/2000/svg" viewBox="0 0 64 64" role="img" aria-labelledby="title">
  <title id="title">Inspector</title>
  <rect x="2" y="2" width="60" height="60" rx="14" fill="#12131a"/>
  <path d="M22 12h-8a2 2 0 0 0-2 2v8M42 12h8a2 2 0 0 1 2 2v8M22 52h-8a2 2 0 0 1-2-2v-8M42 52h8a2 2 0 0 0 2-2v-8" fill="none" stroke="#dfe5f0" stroke-width="3.5" stroke-linecap="round"/>
  <path d="M32 15v34M26.5 20h11M26.5 44h11" fill="none" stroke="#77a8ff" stroke-width="3" stroke-linecap="round"/>
  <rect x="28" y="28" width="8" height="8" rx="2" fill="#77a8ff"/>
  <rect x="31" y="31" width="2" height="2" rx="1" fill="#12131a"/>
</svg>
